<?xml version="1.0" encoding="UTF-8"?> <svg xmlns="http://www.w3.org/2000/svg" id="Layer_2" data-name="Layer 2" viewBox="0 0 4713 509.21"><defs><style> .cls-1 { fill: #fdb515; } .cls-1, .cls-2 { stroke-width: 0px; } .cls-2 { fill: #fff; } </style></defs><g id="Berkeley_Wordmarks" data-name="Berkeley Wordmarks"><g id="_3:Wordmark" data-name="3:Wordmark"><path class="cls-1" d="m1247.46,256.76c12.99,0,25.19-9.61,49.61-60.78,16.62-36.36,29.09-68.57,42.08-101.55,4.16-10.65,6.23-12.73,12.73-14.54,4.68-1.3,6.49-3.12,6.49-5.97,0-2.6-1.56-4.93-5.45-4.93-5.71,0-12.47.78-20.26.78s-14.02-.78-20-.78c-3.64,0-5.45,2.08-5.45,4.68,0,2.86,1.82,4.68,5.97,5.97,11.43,3.12,12.47,8.05,8.05,21.56-7.01,21.3-14.8,41.82-26.75,69.09-10.13-25.19-18.7-47.79-27.27-73.24-3.12-9.87-2.08-14.03,10.13-17.4,4.68-1.3,6.23-2.86,6.23-5.71s-2.08-4.93-5.71-4.93c-7.79,0-15.84.78-26.49.78-11.43,0-19.74-.78-27.79-.78-3.9,0-5.71,2.34-5.71,4.93,0,3.12,1.56,4.68,6.23,5.97,5.97,1.56,7.79,3.64,11.43,12.99,14.28,35.58,27.01,67.01,43.63,109.61-11.17,20.52-19.48,25.19-30.65,27.27-9.09,1.56-15.06,7.27-15.06,14.54,0,5.97,4.16,12.47,14.02,12.47m-81.03-177.39c16.62,0,24.15,15.06,24.15,21.04,0,2.08-1.04,3.64-3.38,4.16-14.02,3.64-30.91,7.01-48.57,10.13,3.12-23.64,14.8-35.32,27.79-35.32m1.82,116.88c22.6,0,38.18-11.17,47.53-22.34,4.16-4.93,1.56-9.35-2.6-9.35-1.04,0-2.08.52-3.12,1.04-10.91,6.75-19.48,10.39-31.17,10.39-25.71,0-41.04-22.6-41.04-48.31v-.52c25.45-3.64,50.39-8.57,76.1-14.55,3.38-.78,5.71-3.38,4.93-7.27-4.16-18.7-21.3-39.22-50.91-39.22s-56.88,27.53-56.88,67.27c0,37.4,24.15,62.85,57.14,62.85m-121.29-2.08c8.57,0,17.66-.78,28.05-.78s20,.78,28.57.78c3.9,0,5.71-2.34,5.71-4.93,0-2.86-1.82-5.45-6.23-5.97-11.69-1.3-13.77-2.6-13.77-8.05-.52-25.19-.52-48.83-.52-72.2,0-21.56,0-45.19.78-97.66,0-3.38-2.08-4.16-4.93-3.38-13.51,3.38-26.49,5.45-37.14,6.49-4.42.26-6.23,2.34-6.23,4.93,0,2.86,1.82,4.93,6.75,5.71,11.43,2.08,12.73,3.38,12.99,9.35.52,26.23.52,50.91.52,74.54s0,47.01-.52,72.2c-.26,5.45-1.82,6.49-13.51,8.05-4.68.52-6.23,3.12-6.23,5.97,0,2.6,1.82,4.93,5.71,4.93m-58.7-114.8c16.62,0,24.15,15.06,24.15,21.04,0,2.08-1.04,3.64-3.38,4.16-14.03,3.64-30.91,7.01-48.57,10.13,3.12-23.64,14.8-35.32,27.79-35.32m1.82,116.88c22.6,0,38.18-11.17,47.53-22.34,4.16-4.93,1.56-9.35-2.6-9.35-1.04,0-2.08.52-3.12,1.04-10.91,6.75-19.48,10.39-31.17,10.39-25.71,0-41.04-22.6-41.04-48.31v-.52c25.45-3.64,50.39-8.57,76.1-14.55,3.38-.78,5.71-3.38,4.93-7.27-4.16-18.7-21.3-39.22-50.91-39.22s-56.88,27.53-56.88,67.27c0,37.4,24.15,62.85,57.14,62.85m-187.52-2.08c8.57,0,17.14-.78,27.53-.78s19.22.78,27.79.78c3.9,0,5.71-2.34,5.71-4.93,0-2.86-1.56-4.93-6.23-5.97-11.69-1.82-12.99-2.6-12.99-8.05-.26-8.31-.26-16.62-.26-24.67,5.71-3.64,11.43-7.53,16.88-11.43,10.91,16.36,22.08,33.25,32.99,48.83,3.38,4.93,5.19,5.97,10.65,5.97,7.79,0,17.4-.26,28.57,0,3.9,0,5.97-2.34,5.97-5.19,0-2.6-1.04-4.93-6.49-5.45-7.27-.78-11.17-4.42-17.4-12.47-10.91-14.8-22.34-31.69-32.99-48.05,0-.26.26-.26.52-.52,20-17.4,33.25-30.65,43.12-43.63,1.3-1.82,2.08-3.38,2.08-4.93,0-3.12-2.08-5.19-6.23-4.94-12.21,1.04-23.38,1.04-37.14.26-5.45-.26-7.01,2.34-7.01,4.93,0,2.34,1.82,4.93,5.45,5.71l5.19,1.3c8.57,2.08,8.57,9.09-2.08,20.26-11.43,12.21-26.23,23.89-42.34,34.02v-32.21c0-21.56,0-45.19.78-97.66,0-3.38-2.08-4.16-4.93-3.38-13.51,3.38-26.49,5.45-37.14,6.49-4.41.26-6.23,2.34-6.23,4.93,0,2.86,1.82,4.93,6.75,5.71,11.43,2.08,12.73,3.38,12.99,9.35.52,26.23.52,50.91.52,74.54s0,47.01-.52,72.2c-.26,5.45-1.3,6.23-12.99,8.05-4.67,1.04-6.23,3.12-6.23,5.97,0,2.6,1.82,4.93,5.71,4.93m-96.36,0c8.31,0,17.14-.78,27.27-.78s21.82.78,30.13.78c3.64,0,5.45-2.34,5.45-4.93,0-2.86-1.56-5.19-6.75-5.97-13.25-1.56-14.54-2.86-14.8-8.31-.52-14.29-.52-27.01-.52-43.63v-21.82c13.51-17.92,19.74-21.56,26.49-21.56,8.05,0,14.8,10.13,18.18,10.13,1.82,0,2.86-.52,4.16-3.12,2.6-5.19,5.19-10.39,7.79-15.84,1.56-3.38.78-5.19-2.34-7.27-6.23-4.16-12.73-7.01-19.22-7.01-11.43,0-21.82,9.61-34.8,30.91,0-8.57.26-17.92.52-28.31,0-3.38-2.08-4.16-4.93-3.38-13.51,3.64-26.23,5.71-37.14,6.49-4.41.52-5.97,2.34-5.97,5.19s1.56,4.93,6.49,5.71c11.43,2.08,12.73,3.38,12.99,9.09.52,12.99.52,26.75.52,40.78,0,16.62,0,29.35-.52,43.63-.26,5.45-1.04,6.75-12.47,8.31-4.67,1.04-6.23,3.12-6.23,5.97,0,2.6,1.82,4.93,5.71,4.93m-63.11-114.8c16.62,0,24.15,15.06,24.15,21.04,0,2.08-1.04,3.64-3.38,4.16-14.03,3.64-30.91,7.01-48.57,10.13,3.12-23.64,14.8-35.32,27.79-35.32m1.82,116.88c22.6,0,38.18-11.17,47.53-22.34,4.16-4.93,1.56-9.35-2.6-9.35-1.04,0-2.08.52-3.12,1.04-10.91,6.75-19.48,10.39-31.17,10.39-25.71,0-41.04-22.6-41.04-48.31v-.52c25.45-3.64,50.39-8.57,76.1-14.55,3.38-.78,5.71-3.38,4.93-7.27-4.16-18.7-21.3-39.22-50.91-39.22s-56.88,27.53-56.88,67.27c0,37.4,24.15,62.85,57.14,62.85m-158.43-16.36c-7.79-1.82-10.39-4.42-10.65-13.77-.52-19.74-.52-35.06-.52-63.11v-.52c44.15-1.04,67.27,8.83,67.27,41.04,0,18.96-13.51,37.92-40.78,37.92-7.01,0-11.43-.52-15.32-1.56m-10.65-144.67c0-5.19,1.3-7.27,5.19-8.83,3.12-1.04,7.79-1.56,15.06-1.56,21.56,0,34.8,11.69,34.8,34.54,0,12.73-4.16,23.38-10.91,31.43-13.25-2.34-28.31-3.12-44.67-2.34,0-20.52,0-35.32.52-53.24m30.13,160.51c43.11,0,68.83-25.19,68.83-54.54,0-23.12-14.02-37.92-37.14-45.97,12.99-7.79,24.16-22.08,24.16-39.22,0-27.79-23.12-44.93-63.63-44.93-17.4,0-21.56,1.56-37.92,1.56s-27.27-1.3-34.02-1.3c-4.16,0-6.23,2.34-6.23,5.71,0,2.86,1.56,5.19,7.01,6.23,14.02,2.08,17.4,4.93,17.4,11.95.26,22.08.52,38.7.52,67.79s0,46.23-.52,68.31c-.26,7.53-2.86,9.61-16.88,10.91-5.45.78-7.01,3.38-7.01,6.23,0,3.38,2.08,5.71,6.23,5.71,10.13,0,19.74-.52,33.5-.52,12.99,0,24.93,2.08,45.71,2.08m-211.16,1.56c22.08,0,42.6-6.23,62.08-18.96,5.45-3.38,7.01-7.01,7.01-10.65,0-7.01.52-13.51.26-19.22-.26-4.42-2.34-7.01-5.97-7.01-2.86,0-4.93,1.82-5.97,5.71-6.75,22.6-27.01,34.8-52.72,34.8-37.92,0-66.49-31.43-66.49-78.96s27.01-79.48,67.01-79.48c25.97,0,41.56,9.61,50.13,29.87,1.82,4.16,3.38,6.23,6.75,6.23,3.64,0,5.19-2.6,5.45-6.75.26-5.97.26-15.32.26-21.04,0-3.9-1.3-7.01-7.01-10.13-13.77-7.53-32.99-12.99-53.5-12.99-60.78,0-102.33,41.82-102.33,97.14s38.96,91.42,95.06,91.42m-197.39,0c44.93,0,74.54-27.79,74.54-76.88v-17.4c0-29.35,0-46.49.26-70.13.26-5.45,2.86-7.79,17.14-9.09,4.93-.78,6.49-3.38,6.49-6.23,0-3.38-2.08-5.71-5.97-5.71-8.31,0-16.36.78-26.75.78s-18.96-.78-27.53-.78c-3.9,0-5.97,2.34-5.97,5.71,0,2.6,1.56,5.19,6.75,5.97,15.06,1.56,17.66,3.9,17.66,9.35.52,23.64.52,40.78.52,70.13v15.32c0,38.44-18.96,57.92-50.65,57.92s-49.35-20.26-49.35-56.1v-17.14c0-29.35,0-46.49.52-70.13,0-5.45,2.6-7.79,16.88-9.09,5.19-.78,6.75-3.38,6.75-6.23,0-3.38-2.08-5.71-6.23-5.71-9.87,0-19.74.78-33.25.78s-23.12-.78-33.24-.78c-3.9,0-5.97,2.34-5.97,5.71,0,2.86,1.56,5.45,6.75,6.23,14.28,1.3,16.88,3.64,16.88,9.09.52,23.64.52,40.78.52,70.13v20.52c0,48.57,28.05,73.76,73.24,73.76"></path></g></g><g id="Double_Unit_Name_Lines" data-name="Double Unit Name Lines"><g id="_3:Horizontal_Unit_Lines_Outline" data-name="3:Horizontal Unit Lines Outline"><path class="cls-2" d="m1411.85,183.13c-3.81-3.05-5.34-5.85-5.6-9.67-.76-6.87-1.27-16.53-1.02-24.42.25-4.07,2.03-6.1,4.83-6.1,2.54,0,4.58,1.78,5.34,4.83,5.85,27.47,21.62,36.37,42.98,36.37s38.15-13.73,38.15-33.06c0-42.22-86.22-36.37-86.22-90.04,0-27.72,22.64-48.33,56.72-48.33,11.7,0,26.45,2.54,37.9,9.67,4.07,2.29,5.34,4.58,5.6,7.63.25,6.1.51,13.48.25,20.6,0,3.31-1.53,5.6-4.58,5.6-2.8,0-4.32-1.78-5.6-6.1-5.85-17.3-18.06-25.44-35.35-25.44-19.08,0-33.57,10.94-33.57,28.74,0,42.48,86.99,36.63,86.99,90.29,0,28.74-22.64,52.65-61.81,52.65-18.31,0-33.32-5.09-45.02-13.23Z"></path><path class="cls-2" d="m1544.36,158.46c.25-10.17.25-17.3.25-25.44,0-13.73,0-26.71-.25-38.92-.25-6.1-1.53-7.12-14.24-9.41-4.58-.76-5.85-2.8-5.85-5.09,0-2.54,1.27-4.07,5.34-4.58,8.65-.51,20.09-2.8,31.29-5.85,2.8-.76,4.83.51,4.83,3.56-.76,33.32-.76,46.55-.76,60.28,0,7.38,0,14.5.25,23.91.25,13.73,6.1,23.65,21.87,23.65,10.17,0,21.62-6.87,30.27-15.77.25-13.48.25-22.89.25-31.79,0-13.73,0-26.71-.25-38.92-.25-6.1-1.53-7.12-14.24-9.41-4.58-.76-5.85-2.8-5.85-5.09,0-2.54,1.27-4.07,5.34-4.58,8.65-.51,20.09-2.8,31.29-5.85,2.8-.76,4.83.51,4.83,3.56-.76,33.32-.76,46.55-.76,60.28s.25,24.93.51,37.64c.25,6.1,1.27,7.38,14.24,9.67,4.58.76,5.85,2.54,5.85,5.09,0,2.29-1.53,4.07-5.34,4.32-8.9.76-20.09,2.8-31.29,6.1-2.8.76-4.83-.51-4.83-3.56,0-6.36.25-11.95.25-17.04-11.7,12.72-25.69,21.11-40.19,21.11-19.33,0-33.57-13.23-32.81-37.9Z"></path><path class="cls-2" d="m1679.17,165.58c.25-27.47.25-53.16,0-80.12h-12.97c-3.05,0-5.09-1.53-5.09-4.32,0-1.78.76-3.05,4.58-5.34,7.88-4.58,17.3-12.72,26.2-25.69,3.05-3.82,8.14-3.05,8.14,2.03,0,6.61-.25,13.48-.25,20.6,11.19.25,21.87.25,31.79-.25,4.58-.25,6.87,2.8,6.87,6.61,0,3.56-2.29,6.61-6.87,6.36-9.92-.25-20.6-.25-31.79,0-.25,27.72,0,55.7,0,76.3,0,11.7,4.83,18.82,15.77,18.82,5.09,0,9.41-1.27,14.24-3.56,2.29-1.02,3.56-1.53,4.83-1.53,3.31,0,5.34,4.32,2.04,7.38-7.38,7.63-17.55,12.97-29.25,12.97-19.08,0-28.74-10.43-28.23-30.27Z"></path><path class="cls-2" d="m1747.84,169.4c0-23.91,27.72-35.86,67.4-45.53,0-5.6.25-11.45.51-17.55.51-16.02-7.63-23.91-19.33-23.91-15.77,0-27.98,8.14-27.98,16.79,0,2.54.51,5.09.51,7.38,0,5.09-4.58,10.68-11.7,10.68-5.85,0-10.94-3.31-10.94-11.7,0-13.73,21.62-35.35,53.41-35.35,18.82,0,37.39,8.14,36.37,34.34-.76,19.08-.76,34.59-.51,48.58.25,17.04,5.34,24.93,14.75,30.27,3.05,1.78,3.31,4.58,0,7.12-2.8,1.78-6.36,4.32-9.16,5.85-4.32,2.29-5.6,2.03-8.39.25-6.1-3.82-11.96-11.19-15.01-23.65-7.63,9.67-23.4,23.65-39.93,23.65-19.33,0-30.01-11.19-30.01-27.22Zm38.41,11.45c8.65,0,20.6-6.1,30.01-15.77-.51-3.31-.76-6.87-.76-10.68-.25-6.61-.25-13.73-.25-20.6-28.49,6.87-46.55,16.53-46.55,31.54,0,10.43,7.12,15.52,17.55,15.52Z"></path><path class="cls-2" d="m1860.77,189.49c0-2.54,1.53-4.32,5.6-5.09,11.7-1.78,12.46-2.8,12.72-8.9.51-13.73.51-25.69.51-42.48,0-13.73-.25-26.2-.51-38.92-.25-6.1-1.27-7.12-14.24-9.41-4.58-.76-5.85-2.8-5.85-5.09,0-2.54,1.53-4.07,5.34-4.58,8.9-.51,20.09-2.8,31.29-5.85,2.8-.76,4.83.51,4.83,3.56-.25,10.43-.25,19.33-.25,26.96,13.74-21.11,23.91-29.5,35.1-29.5,6.1,0,11.45,1.53,17.04,5.09,2.29,1.78,2.8,3.56,1.78,6.1-2.03,4.83-4.58,9.92-7.38,14.5-.51,1.27-1.27,1.78-2.54,1.78-3.56,0-8.14-8.39-16.79-8.39-7.12,0-13.48,3.56-27.47,21.87v21.87c0,16.79,0,28.74.25,42.48.25,6.1,1.27,7.38,16.53,8.9,5.09.51,6.61,2.54,6.61,5.09,0,2.29-1.78,4.32-5.09,4.32-7.38,0-19.84-.76-28.49-.76s-16.79.76-23.91.76c-3.56,0-5.09-2.03-5.09-4.32Z"></path><path class="cls-2" d="m1955.9,137.09c0-42.22,26.45-67.15,57.48-67.15,11.7,0,21.11,4.07,28.49,10.43,0-15.52-.25-32.3-.51-49.09,0-6.1-1.27-7.38-14.24-9.67-4.32-.76-5.85-2.54-5.85-5.09,0-2.29,1.53-4.07,5.6-4.32,8.65-.76,20.09-2.8,31.29-6.1,2.8-.76,4.83.51,4.83,3.56-.76,49.09-.76,74.02-.76,94.87,0,33.07,0,48.58.51,66.13.25,6.1,1.27,7.12,14.24,9.67,4.58,1.02,5.85,2.54,5.85,5.09,0,2.29-1.53,4.07-5.6,4.32-8.65.76-19.84,2.8-31.29,6.1-2.54.76-4.83-.51-4.83-3.56,0-6.1.25-11.95.25-17.3-11.19,14.5-23.65,21.11-37.13,21.11-28.23,0-48.33-25.94-48.33-59.01Zm55.7,43.24c11.45-.25,21.87-6.1,30.01-17.55.25-20.86.25-36.88.25-58.25v-9.41c-6.36-8.39-16.28-13.23-26.96-13.23-22.13,0-38.15,18.31-38.15,50.36,0,29.5,15.77,48.07,34.85,48.07Z"></path><path class="cls-2" d="m2064.25,238.32c0-5.09,3.56-9.41,9.41-9.41,10.43,0,9.16,12.72,19.08,12.72,8.65,0,13.23-9.41,13.48-24.42.51-22.89,0-45.27,0-84.19,0-13.73,0-26.2-.25-38.92-.25-6.1-1.53-7.12-14.5-9.41-4.32-.76-5.85-2.8-5.85-5.09,0-2.54,1.53-4.07,5.6-4.58,8.65-.51,20.09-2.8,31.29-5.85,2.8-.76,4.83.51,4.83,3.56-.76,33.57-.76,46.04-.76,59.77,0,34.85-.25,54.94,0,71.22.76,33.32-16.53,49.6-37.9,49.6-14.75,0-24.42-6.61-24.42-15.01Zm36.37-205.77c0-7.88,6.36-15.26,15.01-15.26s15.01,6.1,15.01,15.26c0,7.63-6.1,15.01-15.01,15.01-8.39,0-15.01-6.1-15.01-15.01Z"></path><path class="cls-2" d="m2153.27,169.4c0-23.91,27.72-35.86,67.4-45.53,0-5.6.25-11.45.51-17.55.51-16.02-7.63-23.91-19.33-23.91-15.77,0-27.98,8.14-27.98,16.79,0,2.54.51,5.09.51,7.38,0,5.09-4.58,10.68-11.7,10.68-5.85,0-10.94-3.31-10.94-11.7,0-13.73,21.62-35.35,53.41-35.35,18.82,0,37.39,8.14,36.37,34.34-.76,19.08-.76,34.59-.51,48.58.25,17.04,5.34,24.93,14.75,30.27,3.05,1.78,3.31,4.58,0,7.12-2.8,1.78-6.36,4.32-9.16,5.85-4.32,2.29-5.6,2.03-8.39.25-6.1-3.82-11.96-11.19-15.01-23.65-7.63,9.67-23.4,23.65-39.93,23.65-19.33,0-30.01-11.19-30.01-27.22Zm38.41,11.45c8.65,0,20.6-6.1,30.01-15.77-.51-3.31-.76-6.87-.76-10.68-.25-6.61-.25-13.73-.25-20.6-28.49,6.87-46.55,16.53-46.55,31.54,0,10.43,7.12,15.52,17.55,15.52Z"></path><path class="cls-2" d="m2310.71,107.08c0-54.18,39.93-94.62,96.4-94.62,19.84,0,37.9,4.83,51.12,12.21,4.32,2.29,5.6,5.34,5.6,8.39.25,5.34.25,14.75,0,20.09-.25,3.56-1.78,5.85-4.83,5.85s-4.32-2.04-5.85-5.85c-8.14-19.33-22.38-27.72-47.82-27.72-41.97,0-70.71,30.78-70.71,79.87s30.27,78.59,69.69,78.59c25.43,0,44.51-11.95,50.62-33.57.76-3.56,2.54-5.34,5.09-5.34,3.31,0,4.83,2.54,5.09,6.36.25,4.83.25,11.7.25,17.04,0,3.05-1.27,6.36-5.6,9.41-17.55,13.23-38.15,18.82-58.75,18.82-52.65,0-90.29-36.88-90.29-89.53Z"></path><path class="cls-2" d="m2476.79,134.55c0-38.66,24.93-64.35,53.16-64.35,25.69,0,40.44,17.8,44.76,35.61,1.02,4.58-1.53,7.38-4.83,8.14-23.65,5.6-48.33,10.68-72.24,14.75v1.53c0,27.47,15.52,49.6,41.2,49.6,11.19,0,20.86-4.58,30.01-11.7,1.53-1.27,2.54-1.78,3.82-1.78,3.31,0,5.09,4.32,2.29,7.88-9.41,12.21-25.18,22.13-43.49,22.13-31.28,0-54.68-25.44-54.68-61.81Zm21.87-17.55c18.31-3.56,36.37-7.12,50.87-10.94,2.04-.76,3.05-1.78,2.8-3.81-1.27-10.94-11.19-20.86-23.4-20.86-14.75,0-26.96,12.46-30.27,35.61Z"></path><path class="cls-2" d="m2586.16,189.49c0-2.54,1.53-4.58,5.6-5.09,11.7-1.78,12.46-2.8,12.72-8.9.51-13.73.51-25.69.51-42.48,0-13.73-.25-26.2-.51-38.92-.25-6.1-1.27-7.12-14.24-9.41-4.58-.76-5.85-2.8-5.85-5.09,0-2.54,1.53-4.07,5.34-4.58,8.9-.51,20.09-2.8,31.29-5.85,2.8-.76,4.83.51,4.83,3.56,0,6.61-.25,12.72-.25,18.31,11.96-12.72,26.2-21.11,40.7-21.11,19.58,0,33.83,13.23,33.32,37.9-.25,10.17-.25,17.3-.25,25.18,0,16.79,0,28.74.25,42.48.25,6.1,1.02,7.12,12.72,8.9,4.32.51,5.85,2.54,5.85,5.09,0,2.29-1.78,4.32-5.09,4.32-7.38,0-15.52-.76-23.91-.76s-16.53.76-23.65.76c-3.31,0-5.09-2.03-5.09-4.32,0-2.54,1.53-4.58,5.34-5.09,11.7-1.78,12.46-2.8,12.72-8.9.25-13.73.25-25.69.25-42.48,0-7.63,0-14.5-.25-24.16-.25-13.23-5.85-23.15-22.13-23.15-10.43,0-22.13,6.87-31.03,15.77v31.54c0,16.79,0,28.74.25,42.48.25,6.1,1.02,7.12,12.72,8.9,3.82.51,5.34,2.54,5.34,5.09,0,2.29-1.53,4.32-5.09,4.32-7.12,0-15.01-.76-23.4-.76s-16.79.76-23.91.76c-3.56,0-5.09-2.03-5.09-4.32Z"></path><path class="cls-2" d="m2736.99,165.58c.25-27.47.25-53.16,0-80.12h-12.97c-3.05,0-5.09-1.53-5.09-4.32,0-1.78.76-3.05,4.58-5.34,7.88-4.58,17.29-12.72,26.2-25.69,3.05-3.82,8.14-3.05,8.14,2.03,0,6.61-.25,13.48-.25,20.6,11.19.25,21.87.25,31.79-.25,4.58-.25,6.87,2.8,6.87,6.61,0,3.56-2.29,6.61-6.87,6.36-9.92-.25-20.6-.25-31.79,0-.25,27.72,0,55.7,0,76.3,0,11.7,4.83,18.82,15.77,18.82,5.09,0,9.41-1.27,14.24-3.56,2.29-1.02,3.56-1.53,4.83-1.53,3.31,0,5.34,4.32,2.04,7.38-7.38,7.63-17.55,12.97-29.25,12.97-19.08,0-28.74-10.43-28.23-30.27Z"></path><path class="cls-2" d="m2798.54,134.55c0-38.66,24.93-64.35,53.16-64.35,25.69,0,40.44,17.8,44.76,35.61,1.02,4.58-1.53,7.38-4.83,8.14-23.65,5.6-48.33,10.68-72.24,14.75v1.53c0,27.47,15.52,49.6,41.2,49.6,11.19,0,20.86-4.58,30.01-11.7,1.53-1.27,2.54-1.78,3.82-1.78,3.31,0,5.09,4.32,2.29,7.88-9.41,12.21-25.18,22.13-43.49,22.13-31.28,0-54.68-25.44-54.68-61.81Zm21.87-17.55c18.31-3.56,36.37-7.12,50.87-10.94,2.04-.76,3.05-1.78,2.8-3.81-1.27-10.94-11.19-20.86-23.4-20.86-14.75,0-26.96,12.46-30.27,35.61Z"></path><path class="cls-2" d="m2907.91,189.49c0-2.54,1.53-4.32,5.6-5.09,11.7-1.78,12.46-2.8,12.72-8.9.51-13.73.51-25.69.51-42.48,0-13.73-.25-26.2-.51-38.92-.25-6.1-1.27-7.12-14.24-9.41-4.58-.76-5.85-2.8-5.85-5.09,0-2.54,1.53-4.07,5.34-4.58,8.9-.51,20.09-2.8,31.29-5.85,2.8-.76,4.83.51,4.83,3.56-.25,10.43-.25,19.33-.25,26.96,13.74-21.11,23.91-29.5,35.1-29.5,6.1,0,11.45,1.53,17.04,5.09,2.29,1.78,2.8,3.56,1.78,6.1-2.03,4.83-4.58,9.92-7.38,14.5-.51,1.27-1.27,1.78-2.54,1.78-3.56,0-8.14-8.39-16.79-8.39-7.12,0-13.48,3.56-27.47,21.87v21.87c0,16.79,0,28.74.25,42.48.25,6.1,1.27,7.38,16.53,8.9,5.09.51,6.61,2.54,6.61,5.09,0,2.29-1.78,4.32-5.09,4.32-7.38,0-19.84-.76-28.49-.76s-16.79.76-23.91.76c-3.56,0-5.09-2.03-5.09-4.32Z"></path><path class="cls-2" d="m3051.61,189.49c0-2.54,1.53-4.32,5.6-5.09,11.7-1.78,12.46-2.8,12.72-8.9.51-24.93.51-48.33.51-70.96v-19.33c-5.09,0-10.17,0-15.01.25-4.32.25-6.87-2.8-6.87-6.36,0-3.81,2.54-6.61,6.87-6.61,4.83.25,9.67.51,14.75.51,0-5.34-.25-10.17-.25-14.24-.51-36.12,15.77-58.75,48.07-58.75,18.06,0,31.03,9.16,31.03,19.08,0,5.6-3.56,9.92-9.67,9.92-11.7,0-9.92-16.02-25.94-16.02s-23.4,16.79-23.4,38.66c0,5.85.25,13.48.25,21.37,7.63,0,15.01,0,21.87-.51,4.58-.25,6.87,2.8,6.87,6.61,0,3.56-2.29,6.61-6.87,6.36-6.87-.25-13.99-.25-21.62-.25.25,6.87.25,13.48.25,19.33,0,22.64,0,46.04.25,70.96.25,6.1,1.27,7.38,16.53,8.9,5.09.51,6.61,2.54,6.61,5.09,0,2.29-1.78,4.32-5.09,4.32-7.38,0-19.84-.76-28.49-.76s-16.79.76-23.91.76c-3.56,0-5.09-2.03-5.09-4.32Z"></path><path class="cls-2" d="m3120.8,133.79c0-37.39,24.93-63.84,56.97-63.84s55.96,25.43,55.96,62.57-25.18,63.84-56.97,63.84-55.96-25.18-55.96-62.57Zm91.57,4.07c0-36.37-17.55-55.96-37.14-55.96s-33.07,18.57-33.07,46.29c0,36.37,17.55,55.96,36.88,55.96s33.32-18.57,33.32-46.29Z"></path><path class="cls-2" d="m3242.37,189.49c0-2.54,1.53-4.32,5.6-5.09,11.7-1.78,12.46-2.8,12.72-8.9.51-13.73.51-25.69.51-42.48,0-13.73-.25-26.2-.51-38.92-.25-6.1-1.27-7.12-14.24-9.41-4.58-.76-5.85-2.8-5.85-5.09,0-2.54,1.53-4.07,5.34-4.58,8.9-.51,20.09-2.8,31.29-5.85,2.8-.76,4.83.51,4.83,3.56-.25,10.43-.25,19.33-.25,26.96,13.74-21.11,23.91-29.5,35.1-29.5,6.1,0,11.45,1.53,17.04,5.09,2.29,1.78,2.8,3.56,1.78,6.1-2.03,4.83-4.58,9.92-7.38,14.5-.51,1.27-1.27,1.78-2.54,1.78-3.56,0-8.14-8.39-16.79-8.39-7.12,0-13.48,3.56-27.47,21.87v21.87c0,16.79,0,28.74.25,42.48.25,6.1,1.27,7.38,16.53,8.9,5.09.51,6.61,2.54,6.61,5.09,0,2.29-1.78,4.32-5.09,4.32-7.38,0-19.84-.76-28.49-.76s-16.79.76-23.91.76c-3.56,0-5.09-2.03-5.09-4.32Z"></path><path class="cls-2" d="m1408.04,443.33c0-2.54,1.53-4.83,5.85-5.34,15.01-1.27,17.8-3.31,17.8-9.16.25-23.4.25-44,.25-69.95s0-45.78-.25-69.18c0-5.6-3.56-8.14-18.31-10.43-4.32-.76-5.85-2.8-5.85-5.34,0-2.8,1.78-4.83,5.34-4.83,5.09,0,15.01,1.27,30.01,1.27,34.34,0,49.85,0,85.72-.25,3.82,0,7.12-2.04,11.19-2.04,3.05,0,4.83,2.04,4.83,4.83,0,12.21.51,25.69,1.53,38.41.25,4.32-2.03,6.87-5.34,6.87s-4.83-2.29-5.85-6.36c-1.53-6.61-3.05-12.21-5.09-19.33-2.29-8.14-4.83-9.16-16.53-9.67-17.55-.51-35.86-.51-52.4,0-4.58.25-7.12,2.8-7.12,6.87-.25,20.09-.25,38.41-.25,59.77,12.21.25,25.69.25,35.35-.25,8.39-.25,11.19-5.34,13.73-17.8.76-4.83,2.54-6.87,5.85-6.87,3.81,0,5.85,2.29,5.34,7.38-.51,5.85-.76,15.26-.76,23.65s.25,18.06.76,23.65c.51,5.09-1.53,7.38-5.34,7.38-3.31,0-5.09-2.04-5.85-6.87-2.54-12.46-5.34-17.3-13.73-17.8-9.67-.51-23.15-.51-35.35-.25,0,24.67,0,41.71.25,59.26.25,10.94,4.83,14.5,17.04,14.75,10.94,0,29,0,46.55-.76,12.21-.51,15.01-1.53,17.55-10.17,2.03-7.38,3.31-12.72,4.83-19.33,1.02-3.81,2.54-6.1,5.85-6.1s5.34,2.54,5.09,6.61c-1.02,12.72-1.53,26.2-1.53,38.15,0,2.8-1.78,4.83-4.83,4.83-4.32,0-7.63-1.27-11.95-1.27-31.79-.25-53.67-.25-89.53-.25-10.94,0-20.09.76-29.25.76-3.56,0-5.6-2.03-5.6-4.83Z"></path><path class="cls-2" d="m1560.64,443.84c0-2.54,1.53-4.58,5.6-5.09,11.7-1.78,12.46-2.8,12.72-8.9.51-13.74.51-25.69.51-42.48,0-13.73-.25-26.2-.51-38.92-.25-6.1-1.27-7.12-14.24-9.41-4.58-.76-5.85-2.8-5.85-5.09,0-2.54,1.53-4.07,5.34-4.58,8.9-.51,20.09-2.8,31.28-5.85,2.8-.76,4.83.51,4.83,3.56,0,6.61-.25,12.72-.25,18.31,11.95-12.72,26.2-21.11,40.7-21.11,19.58,0,33.83,13.23,33.32,37.9-.25,10.17-.25,17.3-.25,25.18,0,16.79,0,28.74.25,42.48.25,6.1,1.02,7.12,12.72,8.9,4.32.51,5.85,2.54,5.85,5.09,0,2.29-1.78,4.32-5.09,4.32-7.38,0-15.52-.76-23.91-.76s-16.53.76-23.65.76c-3.31,0-5.09-2.03-5.09-4.32,0-2.54,1.53-4.58,5.34-5.09,11.7-1.78,12.46-2.8,12.72-8.9.25-13.74.25-25.69.25-42.48,0-7.63,0-14.5-.25-24.16-.25-13.23-5.85-23.15-22.13-23.15-10.43,0-22.13,6.87-31.03,15.77v31.54c0,16.79,0,28.74.25,42.48.25,6.1,1.02,7.12,12.72,8.9,3.81.51,5.34,2.54,5.34,5.09,0,2.29-1.53,4.32-5.09,4.32-7.12,0-15.01-.76-23.4-.76s-16.79.76-23.91.76c-3.56,0-5.09-2.03-5.09-4.32Z"></path><path class="cls-2" d="m1711.47,419.93c.25-27.47.25-53.16,0-80.12h-12.97c-3.05,0-5.09-1.53-5.09-4.32,0-1.78.76-3.05,4.58-5.34,7.88-4.58,17.29-12.72,26.2-25.69,3.05-3.82,8.14-3.05,8.14,2.03,0,6.61-.25,13.48-.25,20.6,11.19.25,21.87.25,31.79-.25,4.58-.25,6.87,2.8,6.87,6.61,0,3.56-2.29,6.61-6.87,6.36-9.92-.25-20.6-.25-31.79,0-.25,27.72,0,55.7,0,76.3,0,11.7,4.83,18.82,15.77,18.82,5.09,0,9.41-1.27,14.24-3.56,2.29-1.02,3.56-1.53,4.83-1.53,3.31,0,5.34,4.32,2.04,7.38-7.38,7.63-17.55,12.97-29.25,12.97-19.08,0-28.74-10.43-28.23-30.27Z"></path><path class="cls-2" d="m1775.06,443.84c0-2.54,1.53-4.32,5.6-5.09,11.7-1.78,12.46-2.8,12.72-8.9.51-13.74.51-25.69.51-42.48,0-13.73-.25-26.2-.51-38.92-.25-6.1-1.27-7.12-14.24-9.41-4.58-.76-5.85-2.8-5.85-5.09,0-2.54,1.53-4.07,5.34-4.58,8.9-.51,20.09-2.8,31.29-5.85,2.8-.76,4.83.51,4.83,3.56-.25,10.43-.25,19.33-.25,26.96,13.74-21.11,23.91-29.5,35.1-29.5,6.1,0,11.45,1.53,17.04,5.09,2.29,1.78,2.8,3.56,1.78,6.1-2.03,4.83-4.58,9.92-7.38,14.5-.51,1.27-1.27,1.78-2.54,1.78-3.56,0-8.14-8.39-16.79-8.39-7.12,0-13.48,3.56-27.47,21.87v21.87c0,16.79,0,28.74.25,42.48.25,6.1,1.27,7.38,16.53,8.9,5.09.51,6.61,2.54,6.61,5.09,0,2.29-1.78,4.32-5.09,4.32-7.38,0-19.84-.76-28.49-.76s-16.79.76-23.91.76c-3.56,0-5.09-2.03-5.09-4.32Z"></path><path class="cls-2" d="m1870.19,388.9c0-38.66,24.93-64.35,53.16-64.35,25.69,0,40.44,17.8,44.76,35.61,1.02,4.58-1.53,7.38-4.83,8.14-23.65,5.6-48.33,10.68-72.24,14.75v1.53c0,27.47,15.52,49.6,41.2,49.6,11.19,0,20.86-4.58,30.01-11.7,1.53-1.27,2.54-1.78,3.82-1.78,3.31,0,5.09,4.32,2.29,7.88-9.41,12.21-25.18,22.13-43.49,22.13-31.28,0-54.68-25.43-54.68-61.81Zm21.87-17.55c18.31-3.56,36.37-7.12,50.87-10.94,2.04-.76,3.05-1.78,2.8-3.81-1.27-10.94-11.19-20.86-23.4-20.86-14.75,0-26.96,12.46-30.27,35.61Z"></path><path class="cls-2" d="m1978.54,504.88c0-2.54,1.53-4.58,5.6-5.09,11.7-1.78,12.72-2.8,12.72-8.9.76-30.27.51-56.72.51-98.94,0-18.31,0-30.78-.51-43.49-.25-6.1-1.27-7.12-14.24-9.41-4.32-.76-5.85-2.8-5.85-5.09,0-2.54,1.53-4.07,5.6-4.58,8.65-.51,19.84-2.8,31.29-5.85,2.54-.76,4.83.51,4.83,3.56-.25,7.12-.25,13.48-.51,19.08,11.45-15.26,24.16-21.87,37.9-21.87,28.49,0,48.58,25.69,48.58,58.75,0,42.22-26.45,67.4-56.97,67.4-12.21,0-22.38-4.32-29.76-10.94,0,18.31,0,34.08.51,51.38,0,6.1,1.27,7.38,16.53,8.9,4.83.25,6.36,2.54,6.36,5.09,0,2.29-1.53,4.32-5.09,4.32-7.38,0-19.58-.76-28.49-.76s-16.79.76-23.91.76c-3.31,0-5.09-2.03-5.09-4.32Zm39.17-80.63c6.36,8.9,16.53,14.24,27.72,14.24,21.62,0,37.9-18.57,37.9-50.62,0-29.25-15.52-47.56-34.59-47.56-11.7,0-22.64,6.1-30.78,18.31-.25,12.46-.25,22.64-.25,33.32v32.3Z"></path><path class="cls-2" d="m2113.08,443.84c0-2.54,1.53-4.32,5.6-5.09,11.7-1.78,12.46-2.8,12.72-8.9.51-13.74.51-25.69.51-42.48,0-13.73-.25-26.2-.51-38.92-.25-6.1-1.27-7.12-14.24-9.41-4.58-.76-5.85-2.8-5.85-5.09,0-2.54,1.53-4.07,5.34-4.58,8.9-.51,20.09-2.8,31.29-5.85,2.8-.76,4.83.51,4.83,3.56-.25,10.43-.25,19.33-.25,26.96,13.74-21.11,23.91-29.5,35.1-29.5,6.1,0,11.45,1.53,17.04,5.09,2.29,1.78,2.8,3.56,1.78,6.1-2.03,4.83-4.58,9.92-7.38,14.5-.51,1.27-1.27,1.78-2.54,1.78-3.56,0-8.14-8.39-16.79-8.39-7.12,0-13.48,3.56-27.47,21.87v21.87c0,16.79,0,28.74.25,42.48.25,6.1,1.27,7.38,16.53,8.9,5.09.51,6.61,2.54,6.61,5.09,0,2.29-1.78,4.32-5.09,4.32-7.38,0-19.84-.76-28.49-.76s-16.79.76-23.91.76c-3.56,0-5.09-2.03-5.09-4.32Z"></path><path class="cls-2" d="m2208.21,388.9c0-38.66,24.93-64.35,53.16-64.35,25.69,0,40.44,17.8,44.76,35.61,1.02,4.58-1.53,7.38-4.83,8.14-23.65,5.6-48.33,10.68-72.24,14.75v1.53c0,27.47,15.52,49.6,41.2,49.6,11.19,0,20.86-4.58,30.01-11.7,1.53-1.27,2.54-1.78,3.82-1.78,3.31,0,5.09,4.32,2.29,7.88-9.41,12.21-25.18,22.13-43.49,22.13-31.28,0-54.68-25.43-54.68-61.81Zm21.87-17.55c18.31-3.56,36.37-7.12,50.87-10.94,2.04-.76,3.05-1.78,2.8-3.81-1.27-10.94-11.19-20.86-23.4-20.86-14.75,0-26.96,12.46-30.27,35.61Z"></path><path class="cls-2" d="m2317.58,443.84c0-2.54,1.53-4.58,5.6-5.09,11.7-1.78,12.46-2.8,12.72-8.9.51-13.74.51-25.69.51-42.48,0-13.73-.25-26.2-.51-38.92-.25-6.1-1.27-7.12-14.24-9.41-4.58-.76-5.85-2.8-5.85-5.09,0-2.54,1.53-4.07,5.34-4.58,8.9-.51,20.09-2.8,31.29-5.85,2.8-.76,4.83.51,4.83,3.56,0,6.61-.25,12.72-.25,18.31,11.95-12.72,26.2-21.11,40.7-21.11,19.58,0,33.83,13.23,33.32,37.9-.25,10.17-.25,17.3-.25,25.18,0,16.79,0,28.74.25,42.48.25,6.1,1.02,7.12,12.72,8.9,4.32.51,5.85,2.54,5.85,5.09,0,2.29-1.78,4.32-5.09,4.32-7.38,0-15.52-.76-23.91-.76s-16.53.76-23.65.76c-3.31,0-5.09-2.03-5.09-4.32,0-2.54,1.53-4.58,5.34-5.09,11.7-1.78,12.46-2.8,12.72-8.9.25-13.74.25-25.69.25-42.48,0-7.63,0-14.5-.25-24.16-.25-13.23-5.85-23.15-22.13-23.15-10.43,0-22.13,6.87-31.03,15.77v31.54c0,16.79,0,28.74.25,42.48.25,6.1,1.02,7.12,12.72,8.9,3.82.51,5.34,2.54,5.34,5.09,0,2.29-1.53,4.32-5.09,4.32-7.12,0-15.01-.76-23.4-.76s-16.79.76-23.91.76c-3.56,0-5.09-2.03-5.09-4.32Z"></path><path class="cls-2" d="m2456.45,388.9c0-38.66,24.93-64.35,53.16-64.35,25.69,0,40.44,17.8,44.76,35.61,1.02,4.58-1.53,7.38-4.83,8.14-23.65,5.6-48.33,10.68-72.24,14.75v1.53c0,27.47,15.52,49.6,41.2,49.6,11.19,0,20.86-4.58,30.01-11.7,1.53-1.27,2.54-1.78,3.82-1.78,3.31,0,5.09,4.32,2.29,7.88-9.41,12.21-25.18,22.13-43.49,22.13-31.28,0-54.68-25.43-54.68-61.81Zm21.87-17.55c18.31-3.56,36.37-7.12,50.87-10.94,2.04-.76,3.05-1.78,2.8-3.81-1.27-10.94-11.19-20.86-23.4-20.86-14.75,0-26.96,12.46-30.27,35.61Z"></path><path class="cls-2" d="m2579.81,412.81c.25-10.17.25-17.29.25-25.43,0-13.73,0-26.71-.25-38.92-.25-6.1-1.53-7.12-14.24-9.41-4.58-.76-5.85-2.8-5.85-5.09,0-2.54,1.27-4.07,5.34-4.58,8.65-.51,20.09-2.8,31.29-5.85,2.8-.76,4.83.51,4.83,3.56-.76,33.32-.76,46.55-.76,60.28,0,7.38,0,14.5.25,23.91.25,13.73,6.1,23.65,21.87,23.65,10.17,0,21.62-6.87,30.27-15.77.25-13.48.25-22.89.25-31.79,0-13.73,0-26.71-.25-38.92-.25-6.1-1.53-7.12-14.24-9.41-4.58-.76-5.85-2.8-5.85-5.09,0-2.54,1.27-4.07,5.34-4.58,8.65-.51,20.09-2.8,31.29-5.85,2.8-.76,4.83.51,4.83,3.56-.76,33.32-.76,46.55-.76,60.28s.25,24.93.51,37.64c.25,6.1,1.27,7.38,14.24,9.67,4.58.76,5.85,2.54,5.85,5.09,0,2.29-1.53,4.07-5.34,4.32-8.9.76-20.09,2.8-31.28,6.1-2.8.76-4.83-.51-4.83-3.56,0-6.36.25-11.96.25-17.04-11.7,12.72-25.69,21.11-40.19,21.11-19.33,0-33.57-13.23-32.81-37.9Z"></path><path class="cls-2" d="m2699.61,443.84c0-2.54,1.53-4.32,5.6-5.09,11.7-1.78,12.46-2.8,12.72-8.9.51-13.74.51-25.69.51-42.48,0-13.73-.25-26.2-.51-38.92-.25-6.1-1.27-7.12-14.24-9.41-4.58-.76-5.85-2.8-5.85-5.09,0-2.54,1.53-4.07,5.34-4.58,8.9-.51,20.09-2.8,31.29-5.85,2.8-.76,4.83.51,4.83,3.56-.25,10.43-.25,19.33-.25,26.96,13.74-21.11,23.91-29.5,35.1-29.5,6.1,0,11.45,1.53,17.04,5.09,2.29,1.78,2.8,3.56,1.78,6.1-2.03,4.83-4.58,9.92-7.38,14.5-.51,1.27-1.27,1.78-2.54,1.78-3.56,0-8.14-8.39-16.79-8.39-7.12,0-13.48,3.56-27.47,21.87v21.87c0,16.79,0,28.74.25,42.48.25,6.1,1.27,7.38,16.53,8.9,5.09.51,6.61,2.54,6.61,5.09,0,2.29-1.78,4.32-5.09,4.32-7.38,0-19.84-.76-28.49-.76s-16.79.76-23.91.76c-3.56,0-5.09-2.03-5.09-4.32Z"></path><path class="cls-2" d="m2800.33,441.04c-3.56-2.8-4.58-5.09-5.09-8.9-.51-4.83-.76-10.17-.76-15.01,0-4.07,1.78-6.1,4.58-6.1,2.29,0,3.82,1.02,4.83,4.58,5.09,16.79,16.53,23.91,33.07,23.91,15.26,0,24.42-9.16,24.42-20.09,0-28.49-63.33-21.11-63.33-59.77,0-20.6,17.3-35.35,41.2-35.35,12.72,0,24.42,3.31,31.29,8.14,3.82,2.29,4.58,5.09,5.09,8.9.51,3.82.51,8.39.51,12.46,0,4.32-1.53,6.36-4.07,6.36s-3.82-1.53-5.09-4.58c-4.83-13.73-15.52-20.09-28.74-20.09s-21.11,8.39-21.11,18.06c0,26.45,63.84,20.86,63.84,60.28,0,22.13-19.33,37.13-43.75,37.13-14.75,0-29-3.81-36.88-9.92Z"></path><path class="cls-2" d="m2889.86,443.84c0-2.54,1.53-4.58,5.6-5.09,11.95-1.78,12.72-2.8,12.97-8.9.25-24.67.25-47.82.25-70.96,0-21.87,0-47.31-.25-73.25-.25-6.1-1.53-7.38-14.5-9.67-4.32-.76-5.85-2.54-5.85-5.09,0-2.29,1.53-4.07,5.6-4.32,8.65-.76,20.09-2.8,31.29-6.1,2.8-.76,4.83.51,4.83,3.56-.51,39.17-.76,62.82-.76,81.65,11.95-12.72,26.45-21.37,41.2-21.37,19.58,0,33.83,13.23,33.07,37.9-.25,10.17-.25,17.3-.25,25.18,0,16.79,0,28.74.25,42.48.25,6.1,1.02,7.12,12.97,8.9,4.07.51,5.6,2.54,5.6,5.09,0,2.29-1.78,4.32-5.09,4.32-7.38,0-15.26-.76-23.91-.76s-16.28.76-23.65.76c-3.31,0-5.09-2.03-5.09-4.32,0-2.54,1.53-4.58,5.6-5.09,11.45-1.78,12.21-2.8,12.46-8.9.51-13.74.51-25.69.51-42.48,0-7.63,0-14.5-.25-24.16-.51-13.23-6.1-23.15-22.38-23.15-10.43,0-22.38,7.12-31.03,16.02v2.8c0,25.18,0,47.31.51,70.96,0,6.1.76,7.12,12.46,8.9,4.07.51,5.34,2.54,5.34,5.09,0,2.29-1.53,4.32-4.83,4.32-7.38,0-15.26-.76-23.65-.76s-16.79.76-23.91.76c-3.31,0-5.09-2.03-5.09-4.32Z"></path><path class="cls-2" d="m3028.22,443.84c0-2.54,1.53-4.32,5.6-5.09,11.7-1.78,12.46-2.8,12.72-8.9.51-13.74.51-25.69.51-42.48,0-13.73-.25-26.2-.51-38.92-.25-6.1-1.27-7.12-14.24-9.41-4.58-.76-5.85-2.8-5.85-5.09,0-2.54,1.53-4.07,5.34-4.58,8.9-.51,20.35-2.8,31.54-5.85,2.54-.76,4.83.51,4.83,3.56-.76,33.83-.76,46.55-.76,60.28,0,16.79,0,28.74.25,42.48.25,6.1,1.02,7.12,12.72,8.9,4.32.76,5.85,2.54,5.85,5.09,0,2.29-1.78,4.32-5.09,4.32-7.38,0-15.26-.76-23.91-.76s-16.79.76-23.91.76c-3.56,0-5.09-2.03-5.09-4.32Zm13.23-156.93c0-7.88,6.1-15.26,15.01-15.26,8.39,0,15.01,6.1,15.01,15.26,0,7.63-6.1,15.01-15.01,15.01-8.39,0-15.01-6.1-15.01-15.01Z"></path><path class="cls-2" d="m3092.57,504.88c0-2.54,1.53-4.58,5.6-5.09,11.7-1.78,12.72-2.8,12.72-8.9.76-30.27.51-56.72.51-98.94,0-18.31,0-30.78-.51-43.49-.25-6.1-1.27-7.12-14.24-9.41-4.32-.76-5.85-2.8-5.85-5.09,0-2.54,1.53-4.07,5.6-4.58,8.65-.51,19.84-2.8,31.29-5.85,2.54-.76,4.83.51,4.83,3.56-.25,7.12-.25,13.48-.51,19.08,11.45-15.26,24.16-21.87,37.9-21.87,28.49,0,48.58,25.69,48.58,58.75,0,42.22-26.45,67.4-56.97,67.4-12.21,0-22.38-4.32-29.76-10.94,0,18.31,0,34.08.51,51.38,0,6.1,1.27,7.38,16.53,8.9,4.83.25,6.36,2.54,6.36,5.09,0,2.29-1.53,4.32-5.09,4.32-7.38,0-19.58-.76-28.49-.76s-16.79.76-23.91.76c-3.31,0-5.09-2.03-5.09-4.32Zm39.17-80.63c6.36,8.9,16.53,14.24,27.72,14.24,21.62,0,37.9-18.57,37.9-50.62,0-29.25-15.52-47.56-34.59-47.56-11.7,0-22.64,6.1-30.78,18.31-.25,12.46-.25,22.64-.25,33.32v32.3Z"></path><path class="cls-2" d="m3439.24,344.13c3.82,6.87,5.85,15.52,5.85,25.18,0,18.57-7.88,36.37-21.37,50.87,4.07,2.29,8.14,4.83,12.46,7.12,5.34,3.05,8.14,4.58,11.45,4.58,3.05,0,6.61-1.53,15.26-10.43,1.27-1.53,2.54-2.29,4.32-2.29,3.56,0,5.85,4.07,2.8,7.88-12.72,15.77-23.65,22.89-29.5,22.89-4.07,0-7.12-1.27-18.06-7.63-5.09-2.8-9.92-5.6-14.75-8.65-16.02,10.68-35.86,17.29-57.99,17.29-44,0-78.85-24.42-78.85-60.79,0-22.89,14.24-41.2,35.1-50.36-7.38-12.21-11.19-23.15-11.19-32.56,0-24.16,17.3-40.44,41.46-40.44s39.17,13.23,39.17,25.43c0,5.85-4.07,9.67-9.92,9.67s-9.16-3.56-12.21-10.94c-4.07-8.9-9.16-12.21-18.31-12.21-11.96,0-20.6,8.65-20.6,22.38,0,17.3,13.48,40.7,44.77,70.2-1.27-3.31-1.78-7.12-1.78-11.45,0-18.31,14.24-39.42,41.97-39.42h.76c21.11.25,34.08,7.63,47.31,7.63,7.38,0,13.23-3.05,18.31-10.17,1.78-2.29,3.31-3.05,4.58-3.05,3.56,0,5.6,3.56,3.56,7.12-8.65,16.53-16.28,23.15-25.69,23.15-3.31,0-6.1-.51-8.9-1.02Zm-83.43,94.11c15.51,0,29.76-4.07,41.46-11.19-38.66-25.18-69.18-54.18-86.73-79.87-12.72,7.38-19.08,19.84-19.08,36.63,0,33.32,28.74,54.43,64.35,54.43Zm58.25-24.42c11.19-11.95,17.8-27.21,17.8-43.49,0-22.13-14.24-35.61-33.83-35.61s-29,16.02-29,30.01c0,9.16,2.8,17.55,10.94,24.42,10.43,8.39,21.62,16.79,34.08,24.67Z"></path><path class="cls-2" d="m3559.04,443.33c0-2.54,1.53-4.83,5.85-5.34,15.26-1.27,18.31-3.56,18.31-9.16.25-23.4.25-44,.25-69.95s0-46.04-.25-69.18c0-4.07-2.54-6.36-7.12-6.61-8.65-.25-18.57-.25-27.72,0-11.7.51-13.99,1.53-16.28,9.67-2.04,7.38-3.56,12.72-5.09,19.33-1.02,4.07-2.54,6.1-5.85,6.1s-5.34-2.54-5.09-6.61c1.02-12.72,1.27-26.45,1.27-38.66,0-2.8,1.78-4.83,5.09-4.83,4.07,0,7.38,2.04,10.94,2.04,23.65.25,36.12.25,60.79.25s37.39,0,61.04-.25c3.56,0,6.87-2.04,10.94-2.04,3.05,0,5.09,2.04,5.09,4.83,0,12.21.25,25.94,1.02,38.66.25,4.07-1.53,6.61-4.83,6.61s-5.09-2.03-5.85-6.1c-1.53-6.61-3.05-11.95-5.09-19.33-2.29-8.14-4.83-9.16-16.28-9.67-9.16-.25-19.08-.25-27.72,0-4.58.25-7.12,2.54-7.12,6.61-.25,23.15-.25,43.49-.25,69.18s0,46.55.25,69.95c0,5.6,3.05,7.88,18.31,9.16,4.32.51,5.85,2.8,5.85,5.34,0,2.8-2.04,4.83-5.6,4.83-9.16,0-18.82-.76-29.76-.76s-20.35.76-29.76.76c-3.56,0-5.34-2.03-5.34-4.83Z"></path><path class="cls-2" d="m3660.78,388.9c0-38.66,24.93-64.35,53.16-64.35,25.69,0,40.44,17.8,44.76,35.61,1.02,4.58-1.53,7.38-4.83,8.14-23.65,5.6-48.33,10.68-72.24,14.75v1.53c0,27.47,15.52,49.6,41.2,49.6,11.19,0,20.86-4.58,30.01-11.7,1.53-1.27,2.54-1.78,3.82-1.78,3.31,0,5.09,4.32,2.29,7.88-9.41,12.21-25.18,22.13-43.49,22.13-31.28,0-54.68-25.43-54.68-61.81Zm21.87-17.55c18.31-3.56,36.37-7.12,50.87-10.94,2.04-.76,3.05-1.78,2.8-3.81-1.27-10.94-11.19-20.86-23.4-20.86-14.75,0-26.96,12.46-30.27,35.61Z"></path><path class="cls-2" d="m3770.4,390.43c0-37.9,25.94-65.88,57.74-65.88,25.94,0,40.19,15.01,40.19,26.71,0,7.12-4.83,10.68-10.68,10.68-4.83,0-10.43-3.56-12.97-12.72-2.8-9.67-8.14-13.23-18.06-13.23-18.31,0-35.1,16.28-35.1,48.58,0,27.47,14.75,49.6,38.92,49.6,11.7,0,21.37-4.58,31.79-13.23,1.53-1.27,2.54-1.78,3.82-1.78,3.31,0,5.09,4.07,2.29,7.88-11.45,14.75-26.71,23.65-45.53,23.65-29.76,0-52.4-24.42-52.4-60.28Z"></path><path class="cls-2" d="m3874.94,443.84c0-2.54,1.53-4.58,5.6-5.09,11.95-1.78,12.72-2.8,12.97-8.9.25-24.67.25-47.82.25-70.96,0-21.87,0-47.31-.25-73.25-.25-6.1-1.53-7.38-14.5-9.67-4.32-.76-5.85-2.54-5.85-5.09,0-2.29,1.53-4.07,5.6-4.32,8.65-.76,20.09-2.8,31.29-6.1,2.8-.76,4.83.51,4.83,3.56-.51,39.17-.76,62.82-.76,81.65,11.95-12.72,26.45-21.37,41.2-21.37,19.58,0,33.83,13.23,33.07,37.9-.25,10.17-.25,17.3-.25,25.18,0,16.79,0,28.74.25,42.48.25,6.1,1.02,7.12,12.97,8.9,4.07.51,5.6,2.54,5.6,5.09,0,2.29-1.78,4.32-5.09,4.32-7.38,0-15.26-.76-23.91-.76s-16.28.76-23.65.76c-3.31,0-5.09-2.03-5.09-4.32,0-2.54,1.53-4.58,5.6-5.09,11.45-1.78,12.21-2.8,12.46-8.9.51-13.74.51-25.69.51-42.48,0-7.63,0-14.5-.25-24.16-.51-13.23-6.1-23.15-22.38-23.15-10.43,0-22.38,7.12-31.03,16.02v2.8c0,25.18,0,47.31.51,70.96,0,6.1.76,7.12,12.46,8.9,4.07.51,5.34,2.54,5.34,5.09,0,2.29-1.53,4.32-4.83,4.32-7.38,0-15.26-.76-23.65-.76s-16.79.76-23.91.76c-3.31,0-5.09-2.03-5.09-4.32Z"></path><path class="cls-2" d="m4013.3,443.84c0-2.54,1.53-4.58,5.6-5.09,11.7-1.78,12.46-2.8,12.72-8.9.51-13.74.51-25.69.51-42.48,0-13.73-.25-26.2-.51-38.92-.25-6.1-1.27-7.12-14.24-9.41-4.58-.76-5.85-2.8-5.85-5.09,0-2.54,1.53-4.07,5.34-4.58,8.9-.51,20.09-2.8,31.29-5.85,2.8-.76,4.83.51,4.83,3.56,0,6.61-.25,12.72-.25,18.31,11.95-12.72,26.2-21.11,40.7-21.11,19.58,0,33.83,13.23,33.32,37.9-.25,10.17-.25,17.3-.25,25.18,0,16.79,0,28.74.25,42.48.25,6.1,1.02,7.12,12.72,8.9,4.32.51,5.85,2.54,5.85,5.09,0,2.29-1.78,4.32-5.09,4.32-7.38,0-15.52-.76-23.91-.76s-16.53.76-23.65.76c-3.31,0-5.09-2.03-5.09-4.32,0-2.54,1.53-4.58,5.34-5.09,11.7-1.78,12.46-2.8,12.72-8.9.25-13.74.25-25.69.25-42.48,0-7.63,0-14.5-.25-24.16-.25-13.23-5.85-23.15-22.13-23.15-10.43,0-22.13,6.87-31.03,15.77v31.54c0,16.79,0,28.74.25,42.48.25,6.1,1.02,7.12,12.72,8.9,3.82.51,5.34,2.54,5.34,5.09,0,2.29-1.53,4.32-5.09,4.32-7.12,0-15.01-.76-23.4-.76s-16.79.76-23.91.76c-3.56,0-5.09-2.03-5.09-4.32Z"></path><path class="cls-2" d="m4151.92,388.14c0-37.39,24.93-63.84,56.97-63.84s55.96,25.43,55.96,62.57-25.18,63.84-56.97,63.84-55.96-25.18-55.96-62.57Zm91.57,4.07c0-36.37-17.55-55.96-37.14-55.96s-33.07,18.57-33.07,46.29c0,36.37,17.55,55.96,36.88,55.96s33.32-18.57,33.32-46.29Z"></path><path class="cls-2" d="m4272.48,443.84c0-2.54,1.53-4.32,5.6-5.09,11.7-1.78,12.72-2.8,12.72-8.9.51-24.93.51-48.33.51-70.96s0-47.31-.25-73.25c-.25-6.1-1.53-7.38-14.5-9.67-4.32-.76-5.85-2.54-5.85-5.09,0-2.29,1.53-4.07,5.6-4.32,8.65-.76,20.09-2.8,31.29-6.1,2.8-.76,4.83.51,4.83,3.56-.76,49.09-.76,74.02-.76,94.87,0,22.64,0,46.04.51,70.96,0,6.1,1.02,7.12,12.72,8.9,4.07.76,5.6,2.54,5.6,5.09,0,2.29-1.78,4.32-5.09,4.32-7.12,0-15.26-.76-23.91-.76s-16.79.76-23.91.76c-3.31,0-5.09-2.03-5.09-4.32Z"></path><path class="cls-2" d="m4338.1,388.14c0-37.39,24.93-63.84,56.97-63.84s55.96,25.43,55.96,62.57-25.18,63.84-56.97,63.84-55.96-25.18-55.96-62.57Zm91.57,4.07c0-36.37-17.55-55.96-37.14-55.96s-33.07,18.57-33.07,46.29c0,36.37,17.55,55.96,36.88,55.96s33.32-18.57,33.32-46.29Z"></path><path class="cls-2" d="m4495.53,410.77c-6.87,3.82-10.17,8.39-10.17,13.73,0,6.87,4.07,10.68,15.52,10.43h32.56c26.45.25,41.97,12.72,41.97,31.29,0,22.64-24.42,42.48-64.6,42.48-33.32,0-53.67-11.95-53.67-30.27,0-11.45,8.65-21.62,26.71-26.96-9.92-3.56-16.02-11.19-16.02-20.6s6.1-18.06,18.57-24.42c-12.21-7.63-20.35-20.6-20.35-36.88,0-26.45,21.62-45.02,48.83-45.02,9.16,0,17.55,2.29,24.93,6.1,11.96,0,19.84-2.03,29.25-7.12,2.8-1.27,3.81-1.78,5.34-1.78,2.29,0,3.56,1.02,3.82,3.56.25,3.56.25,8.9,0,12.97-.25,3.56-2.29,4.83-5.85,4.83-4.07,0-11.95-.76-19.58-1.78,6.36,7.38,9.92,16.79,9.92,27.47,0,26.71-21.62,45.02-48.83,45.02-6.36,0-12.72-1.02-18.31-3.05Zm15.51,85.97c28.23,0,44.26-11.19,44.26-25.69,0-10.94-8.39-17.3-29-17.3-1.27-.25-17.29-.25-25.18-.25-18.57,3.56-25.44,13.23-25.44,21.62,0,9.92,8.14,21.62,35.35,21.62Zm31.54-125.65c0-22.64-13.48-34.59-28.23-34.59-16.79,0-27.98,12.46-27.98,31.03,0,22.38,13.48,34.08,28.23,34.34,16.53.25,27.98-12.46,27.98-30.78Z"></path><path class="cls-2" d="m4590.66,498.78c0-5.85,4.32-10.17,11.7-10.94,13.74-1.53,22.64-10.17,35.86-38.92-13.99-35.1-26.96-67.4-40.44-100.72-3.56-8.65-6.36-10.43-12.97-11.7-4.32-.76-5.85-2.8-5.85-5.34s1.78-4.58,5.09-4.58c7.38,0,15.52.76,24.93.76,8.9,0,16.28-.76,23.4-.76,3.31,0,5.09,2.03,5.09,4.58s-1.53,4.58-5.6,5.34c-12.97,1.53-13.23,5.6-10.94,12.21,9.16,26.96,18.31,51.63,28.23,75.54,11.95-27.72,20.86-50.11,30.78-75.54,2.54-6.36,2.03-10.68-10.94-12.21-4.07-.76-5.6-2.8-5.6-5.34s1.53-4.58,4.83-4.58c5.85,0,11.95.76,19.33.76s14.24-.76,20.35-.76c3.31,0,5.09,2.03,5.09,4.58s-1.53,4.58-5.85,5.34c-6.61,1.27-9.41,3.05-13.23,11.7-13.74,33.06-27.22,64.86-42.22,99.7-22.13,51.38-36.63,60.79-48.83,60.79-8.65,0-12.21-5.34-12.21-9.92Z"></path></g></g></svg> 